<svg width="19" height="23" viewBox="0 0 19 23" fill="none" xmlns="http://www.w3.org/2000/svg">
<path fill-rule="evenodd" clip-rule="evenodd" d="M0 7C0 5.34315 1.34315 4 3 4H16C17.6569 4 19 5.34315 19 7V20C19 21.6569 17.6569 23 16 23H3C1.34315 23 0 21.6569 0 20V7ZM3 6C2.44772 6 2 6.44772 2 7V20C2 20.5523 2.44772 21 3 21H16C16.5523 21 17 20.5523 17 20V7C17 6.44772 16.5523 6 16 6H3Z" fill="#A3A3A3"/>
<path fill-rule="evenodd" clip-rule="evenodd" d="M4 0C4.55228 0 5 0.447715 5 1V5C5 5.55228 4.55228 6 4 6C3.44772 6 3 5.55228 3 5V1C3 0.447715 3.44772 0 4 0Z" fill="#A3A3A3"/>
<path fill-rule="evenodd" clip-rule="evenodd" d="M15 0C15.5523 0 16 0.447715 16 1V5C16 5.55228 15.5523 6 15 6C14.4477 6 14 5.55228 14 5V1C14 0.447715 14.4477 0 15 0Z" fill="#A3A3A3"/>
<path d="M4 9.60864C4 9.05636 4.44772 8.60864 5 8.60864H6C6.55228 8.60864 7 9.05636 7 9.60864V10.4782C7 11.0305 6.55228 11.4782 6 11.4782H5C4.44772 11.4782 4 11.0305 4 10.4782V9.60864Z" fill="#A3A3A3"/>
<path d="M8 9.60864C8 9.05636 8.44772 8.60864 9 8.60864H10C10.5523 8.60864 11 9.05636 11 9.60864V10.4782C11 11.0305 10.5523 11.4782 10 11.4782H9C8.44772 11.4782 8 11.0305 8 10.4782V9.60864Z" fill="#A3A3A3"/>
<path d="M12 9.60864C12 9.05636 12.4477 8.60864 13 8.60864H14C14.5523 8.60864 15 9.05636 15 9.60864V10.4782C15 11.0305 14.5523 11.4782 14 11.4782H13C12.4477 11.4782 12 11.0305 12 10.4782V9.60864Z" fill="#A3A3A3"/>
<path d="M4 14.3914C4 13.8391 4.44772 13.3914 5 13.3914H6C6.55228 13.3914 7 13.8391 7 14.3914V15.2609C7 15.8132 6.55228 16.2609 6 16.2609H5C4.44772 16.2609 4 15.8132 4 15.2609V14.3914Z" fill="#A3A3A3"/>
<path d="M8 14.3914C8 13.8391 8.44772 13.3914 9 13.3914H10C10.5523 13.3914 11 13.8391 11 14.3914V15.2609C11 15.8132 10.5523 16.2609 10 16.2609H9C8.44772 16.2609 8 15.8132 8 15.2609V14.3914Z" fill="#A3A3A3"/>
<path d="M12 14.3914C12 13.8391 12.4477 13.3914 13 13.3914H14C14.5523 13.3914 15 13.8391 15 14.3914V15.2609C15 15.8132 14.5523 16.2609 14 16.2609H13C12.4477 16.2609 12 15.8132 12 15.2609V14.3914Z" fill="#A3A3A3"/>
</svg>
