<svg width="102" height="57" viewBox="0 0 102 57" fill="none" xmlns="http://www.w3.org/2000/svg">
<path d="M60.1256 18.9682C60.8786 18.0335 62.1508 17.722 63.8903 17.9816C64.4356 18.1892 64.7212 18.6307 64.7471 19.3317C63.9942 25.2772 63.0076 32.2095 62.3585 38.3887C62.3325 38.6224 62.3326 38.8042 62.3844 38.908C62.8518 39.8427 64.3058 39.2196 65.3183 37.0127C65.3443 38.0513 64.6432 41.2187 62.8518 42.9323C61.4498 44.2564 59.4247 44.568 58.6198 44.1266C57.6592 43.6073 57.7111 42.6467 57.763 41.7639C58.2303 34.8058 59.139 25.9004 60.1256 18.9682Z" fill="#FEFEFE"/>
<path d="M48.8575 13.1007C49.6104 12.1659 50.8826 11.8544 52.6221 12.1141C53.1674 12.3217 53.453 12.7631 53.4789 13.4642C53.3751 14.243 50.7009 24.9139 53.9203 21.0194C53.4011 22.6811 50.1816 25.4592 48.494 24.7322C47.2477 24.187 47.6892 21.8762 47.767 20.7858C48.0007 18.2154 48.494 15.7489 48.8575 13.1007Z" fill="#FEFEFE"/>
<path d="M41.9253 14.5804C42.6783 13.6457 43.9505 13.3341 45.69 13.5938C46.2352 13.8014 46.5208 14.2429 46.5468 14.9438C46.4429 15.7228 43.7687 26.3936 46.9881 22.4991C46.4689 24.1608 43.2494 26.9389 41.5618 26.2119C41.2502 26.0821 41.0685 25.8484 40.9387 25.5368C38.9396 27.2245 34.8892 28.964 34.3959 25.2772C33.9286 22.3693 34.2402 18.2671 36.4211 16.0083C37.7972 14.6063 40.1338 13.8534 41.7695 15.593C41.8215 15.2554 41.8734 14.9178 41.9253 14.5804ZM38.8876 19.8769C37.7193 22.0318 39.0174 24.3685 40.5232 22.2914C41.0945 21.5125 41.3282 20.2663 41.0685 19.4874C40.7569 18.6306 39.6665 18.4749 38.8876 19.8769Z" fill="#FEFEFE"/>
<path d="M74.0938 30.3401C74.9246 29.4573 76.1968 29.2237 77.9104 29.6391C78.4296 29.8727 78.6893 30.3401 78.6633 31.0411C78.5076 31.7941 75.0804 42.2573 78.5595 38.5964C77.9104 40.2061 74.5092 42.7765 72.8735 41.8938C72.5879 41.738 72.4062 41.4784 72.3023 41.1927C70.1993 42.7246 66.0192 44.1785 65.8115 40.4657C65.5519 37.5319 66.175 33.4557 68.5117 31.3787C69.9916 30.0805 72.3802 29.4833 73.8861 31.3526C73.938 31.0152 74.0159 30.6776 74.0938 30.3401ZM70.6926 35.403C69.3685 37.48 70.4849 39.8946 72.1466 37.9473C72.7697 37.2203 73.1072 36.0001 72.8735 35.1952C72.6399 34.3125 71.5494 34.0528 70.6926 35.403Z" fill="#FEFEFE"/>
<path d="M53.7127 9.10207C52.8819 11.4907 47.819 11.8542 48.9354 8.92032C49.6624 7.02499 54.5435 6.14224 53.7127 9.10207Z" fill="#FEFEFE"/>
<path d="M80.7145 40.959C80.1433 42.1533 77.495 42.0754 78.222 40.5955C78.7153 39.6349 81.3117 39.4532 80.7145 40.959Z" fill="#FEFEFE"/>
<path d="M32.5007 16.2423C33.3055 16.5538 33.4094 17.3327 33.2536 18.0597C32.7863 20.2406 30.7871 29.5615 33.695 26.0304C33.1757 27.6921 29.9563 30.4702 28.2687 29.7432C27.0225 29.198 27.4638 26.8872 27.5417 25.7968C27.6456 24.5765 27.8013 23.3821 27.983 22.1879C28.1128 21.435 28.035 20.9417 27.4897 21.0195C26.633 21.2013 26.581 21.7205 26.4512 22.3696C26.1397 23.9793 26.0358 25.8746 25.5944 27.718C25.1271 29.7691 25.0233 31.0154 22.401 31.7164C20.3758 32.2616 21.4144 26.6535 21.9596 23.0706C22.1413 21.9542 22.349 20.8378 22.5308 19.7214C22.6086 19.254 21.5701 19.0982 22.9981 18.579C23.4136 18.4231 23.8549 18.2674 24.2704 18.1116C26.9186 17.2289 29.7746 15.723 32.5007 16.2423Z" fill="#FEFEFE"/>
<path d="M93.2807 35.5845C93.8001 35.1692 94.5012 35.1431 95.41 35.5066C95.6692 35.6884 95.7735 35.948 95.695 36.3375C95.5391 36.7529 92.8655 42.1272 95.0465 40.4137C94.5787 41.2445 92.5279 42.3609 91.7229 41.7638C91.1258 41.3224 91.619 40.1281 91.8008 39.5829C92.1902 38.2068 92.7613 36.9606 93.2807 35.5845Z" fill="#FEFEFE"/>
<path d="M89.9055 35.455C90.4247 35.0396 91.1258 35.0136 92.0344 35.3771C92.2944 35.5589 92.3977 35.8185 92.3202 36.2079C92.1902 36.5974 89.9055 40.9592 91.7748 39.687C91.8267 39.6611 91.6191 40.3361 91.6709 40.2842C91.2036 41.115 89.1525 42.2314 88.3477 41.6343C87.7505 41.1929 88.2438 39.9986 88.4255 39.4533C88.8409 38.0773 89.3862 36.8051 89.9055 35.455Z" fill="#FEFEFE"/>
<path d="M28.9696 41.6341C29.1513 41.2706 29.4889 39.0636 32.942 38.5964C33.8766 38.4666 34.4998 38.7262 34.6036 39.8426C34.5517 40.6215 32.6044 52.1492 35.6162 48.073C35.1749 49.7606 32.1371 52.7204 30.4236 52.0714C29.0475 51.552 29.3331 47.1383 29.437 45.7622C29.5148 44.3082 28.3465 45.2689 28.1387 46.1776C27.6974 47.9172 27.8532 52.7464 26.7367 53.5772C26.3214 53.8887 25.4126 54.2782 24.6337 54.434C23.2836 54.7196 23.3875 50.7212 23.6991 47.32C23.4394 46.0738 22.4528 47.1123 22.2191 48.1508C21.9595 49.3711 21.8816 51.1366 21.7777 52.7464C21.6999 53.7589 21.7258 54.9272 21.2844 55.6023C20.947 56.1216 20.0122 56.589 18.4545 56.9784C16.7409 57.4197 16.9486 50.9809 17.3899 47.4499C17.4679 46.7748 17.4679 46.2036 17.6496 45.4507C18.039 43.841 20.7133 41.9196 22.323 42.5168C23.024 43.114 22.6345 44.2304 22.8163 43.9188C23.2836 43.114 23.7769 41.66 26.1655 40.6993C27.5416 40.2061 29.1513 40.3099 28.9696 41.6341Z" fill="#FEFEFE"/>
<path d="M55.6338 36.7531C57.1137 35.1434 57.0877 33.0404 54.6991 32.8846C52.9596 32.7548 51.0902 33.2481 49.4026 34.1828C45.7418 36.156 46.5466 40.9073 51.0902 40.6736C52.5961 40.5698 52.8298 41.5044 52.0769 42.1016C51.4278 42.6208 50.3373 42.8286 48.9872 41.9977C48.6757 41.816 48.3641 41.5564 48.0526 41.2448C47.0399 41.7121 45.3264 43.7892 46.6245 44.646C50.2853 47.0865 56.8281 45.5807 56.932 41.1669C56.9839 39.4533 56.0752 38.311 54.3875 38.1552C53.4789 38.0773 52.648 38.2071 51.9989 37.9994C51.4278 37.8177 51.2201 37.4801 51.4537 36.8829C52.3884 35.5848 54.2837 36.5455 55.6338 36.7531Z" fill="#FEFEFE"/>
<path d="M35.9017 47.0345C35.7719 46.7749 35.6682 46.4374 35.6421 46.0479C35.2008 43.2698 35.5123 39.3235 37.5894 37.1425C37.9529 36.7531 38.3423 36.4675 38.7058 36.2598C39.8222 35.6366 41.2762 35.377 42.6523 35.403C48.5459 35.6107 47.0919 45.1912 40.4973 45.6584C41.0425 46.9567 44.6774 46.1778 45.8198 44.3084C43.9504 48.1509 37.4855 52.0455 35.9017 47.0345ZM39.8222 41.764C40.2376 42.5169 41.7955 42.413 42.2109 41.3226C42.7821 39.8427 42.2109 39.1157 41.2762 39.1157C40.3415 39.1157 39.0693 40.4658 39.8222 41.764Z" fill="#FEFEFE"/>
<path d="M5.65446 30.2103C9.36723 28.1592 16.637 26.2379 22.0114 25.4071C22.2451 25.3812 22.1412 26.861 21.3883 27.1207C15.7802 28.9641 10.8471 31.1969 7.00455 33.7413C5.86216 33.0922 5.26501 31.3267 5.65446 30.2103Z" fill="#FEFEFE"/>
<path d="M88.8929 35.7146C88.7631 36.5194 88.3996 37.2204 87.8284 37.5579C87.1274 37.9733 86.4784 37.3243 86.686 36.6751C86.686 36.104 85.9071 36.5973 85.3099 37.4281C84.8946 37.9993 84.6349 38.8561 84.557 39.0638C84.4792 39.2974 84.3753 39.5831 84.2974 39.8946C84.1676 40.3879 84.0378 40.9331 83.7781 41.2188C83.5444 41.4524 82.8694 41.5043 82.0905 41.5562C81.2338 41.5823 82.2204 38.3368 82.7915 36.7012C82.8954 36.3896 82.9993 35.9482 83.155 35.6107C83.5185 34.8837 84.9464 34.4423 85.6734 34.9096C85.9591 35.2731 85.6475 35.7664 85.7773 35.6366C86.0889 35.2991 86.5562 34.7539 87.6726 34.5202C88.2438 34.4163 88.9448 34.5461 88.9448 35.2212C88.8929 35.3511 88.9188 35.5328 88.8929 35.7146Z" fill="#FEFEFE"/>
<path d="M52.4923 25.9783C66.9539 24.0311 83.0252 23.4339 96.9931 28.0554C81.2857 25.0437 64.0979 27.3284 48.6238 31.3787L49.0912 28.2372C49.3767 26.2899 50.9085 26.186 52.4923 25.9783Z" fill="#FEFEFE"/>
<path d="M3.00626 26.0564C1.55232 25.0699 0.66957 23.6678 0.072413 22.11C-0.10933 21.383 0.0464497 20.656 0.591679 20.0589C3.60342 16.7097 12.7685 14.0613 17.1044 14.0873C17.8573 14.0873 18.6102 14.2691 19.2593 14.6066C25.2828 17.9039 15.3908 32.028 13.2877 35.4811C12.5088 36.9351 12.9242 37.1688 13.8849 36.8831C24.4779 32.9887 34.9152 28.9644 47.1179 26.6276C47.4295 26.5757 48.7796 26.3161 49.0652 26.2641C47.819 26.8873 47.793 29.4577 47.4555 31.4828C38.8356 33.5858 30.086 36.4418 21.6999 39.6352C18.2727 40.9335 10.0164 45.4251 7.00462 45.0096C4.35636 44.3606 4.12269 42.1537 4.69389 40.1285C8.95187 32.08 13.9628 28.0296 14.8715 22.1619C15.6504 17.151 4.77177 25.1737 4.09673 25.9786C3.65535 26.368 3.31782 26.2382 3.00626 26.0564Z" fill="#FEFEFE"/>
<path d="M86.5302 10.1146C88.1659 8.68659 90.8141 6.45375 92.1123 4.86998C93.0472 3.72759 90.8141 1.72842 89.7756 3.13044C88.5294 4.84402 86.5561 7.49228 85.3619 9.1799C85.7513 9.38764 86.2187 9.75113 86.5302 10.1146Z" fill="#FFD500"/>
<path d="M89.9574 13.6978C91.9826 12.8929 95.5658 11.4909 97.3048 10.4264C98.5512 9.67347 97.0973 7.02521 95.6691 8.03777C93.9301 9.25804 90.8661 11.2312 89.1525 12.4256C89.464 12.7891 89.7757 13.2824 89.9574 13.6978Z" fill="#FFD500"/>
<path d="M90.996 16.9433C91.1518 17.3586 91.2556 17.9558 91.2556 18.4231C93.4107 18.4491 98.1102 18.501 100.084 18.1635C101.511 17.9298 101.173 15.0479 99.4858 15.3335C97.4608 15.671 93.0214 16.4239 90.996 16.9433Z" fill="#FFD500"/>
<path d="M100.291 22.4993C98.1361 22.3434 93.4365 21.9799 91.2816 22.006C91.3335 22.4732 91.0999 23.0445 90.996 23.5118C93.1773 24.057 98.1102 25.2514 100.187 25.4071C101.693 25.511 102.082 22.6291 100.291 22.4993Z" fill="#FFD500"/>
<path d="M85.0244 1.57282C85.4139 0.170797 82.5839 -0.789848 82.1944 0.897771C81.7271 2.97484 81.2857 5.49329 80.8443 7.51843C81.3117 7.57035 81.8569 7.72614 82.2983 7.90788C83.2589 5.93466 84.4792 3.52008 85.0244 1.57282Z" fill="#FFD500"/>
<path d="M76.3007 7.6483C76.7421 7.49251 77.3653 7.41462 77.8326 7.44058C77.8845 5.25967 78.0143 3.39031 77.8845 1.36518C77.6768 -0.0887567 74.691 0.196839 75.0285 1.88445C75.418 3.96151 75.8853 5.62316 76.3007 7.6483Z" fill="#FFD500"/>
<path d="M72.0168 9.56936C72.3283 9.25781 72.8475 8.9203 73.263 8.71259C72.4321 6.71342 72.1466 5.62296 71.0042 3.93534C70.1734 2.74104 67.629 4.3248 68.6934 5.67489C69.9916 7.33654 70.7185 7.93369 72.0168 9.56936Z" fill="#FFD500"/>
<path d="M64.5912 10.7118C66.4087 11.8282 66.928 11.6984 68.6935 12.7629C68.8752 12.3475 69.2127 11.8542 69.5503 11.5167C67.9924 9.98487 67.8366 9.38769 66.1491 8.24531C64.9288 7.44044 63.1113 9.80312 64.5912 10.7118Z" fill="#FFD500"/>
<path d="M62.2027 15.9823C63.3191 16.4496 65.8635 16.6314 67.1357 16.7612C67.2655 16.2679 67.4473 15.6447 67.6031 15.2812C65.5779 14.5283 64.9289 14.2167 62.9816 13.6196C61.6835 13.334 61.0343 15.489 62.2027 15.9823Z" fill="#FFD500"/>
<path d="M78.975 8.73858C72.7438 8.81647 67.7847 13.9313 67.8627 20.1625C67.8886 21.2789 68.0444 22.3693 68.3819 23.3819C75.4439 22.9924 82.6098 23.252 89.3862 24.6801C90.0613 23.2002 90.4247 21.5645 90.3988 19.8249C90.2949 13.6197 85.1801 8.66068 78.975 8.73858ZM76.0411 22.4991C75.4699 22.6289 74.8728 22.2655 74.7429 21.6943C74.6131 21.1231 74.9766 20.526 75.5478 20.3961C76.119 20.2663 76.7162 20.6297 76.846 21.201C76.9758 21.7982 76.6123 22.3693 76.0411 22.4991ZM81.6232 22.8367C81.052 22.9665 80.4549 22.603 80.3251 22.0318C80.1952 21.4606 80.5587 20.8634 81.1299 20.7336C81.7011 20.6038 82.2982 20.9673 82.428 21.5385C82.5578 22.1097 82.1944 22.7069 81.6232 22.8367ZM84.6349 20.8634C84.557 21.0712 84.4792 21.2789 84.3753 21.4866C84.0378 22.1097 83.7522 21.928 83.0772 21.902H82.8435C82.8435 21.7722 82.8435 21.6423 82.8175 21.5125C82.6358 20.7336 81.8569 20.2403 81.052 20.4221C80.4029 20.5779 79.9616 21.1231 79.9355 21.7462C79.0528 21.6943 78.17 21.6164 77.2614 21.5645C77.2614 21.4347 77.2614 21.3049 77.2354 21.1491C77.0536 20.3701 76.2747 19.8768 75.4699 20.0586C74.7948 20.2144 74.3275 20.8375 74.3275 21.5125C73.6265 21.4866 72.9774 21.3308 72.9774 20.4999C72.9774 20.3182 72.9774 20.1625 73.0034 19.9807C73.0293 19.2797 73.1332 19.2537 73.8342 19.02L73.8602 18.9941C74.3275 18.8383 74.8987 18.7344 75.5478 18.6306C75.5218 17.1767 76.6382 15.8266 78.2999 15.4371C80.1692 14.9957 81.9608 15.9823 82.3502 17.618C82.4541 18.0335 82.428 18.4229 82.3502 18.8383C83.0511 18.9941 83.6483 19.2018 84.1416 19.4874C84.8427 19.9029 84.9205 20.0846 84.6349 20.8634Z" fill="#FFD500"/>
</svg>
